<svg width="1213" height="317" viewBox="0 0 1213 317" fill="none" xmlns="http://www.w3.org/2000/svg">
<g clip-path="url(#clip0_2439_260)">
<g clip-path="url(#clip1_2439_260)">
<rect x="87" y="47" width="177" height="228" fill="white"/>
<rect x="82" y="55" width="161" height="227" fill="white"/>
<rect x="66" y="85" width="215" height="178" fill="white"/>
<path d="M164.784 283.038L80.7576 283.052C68.8289 283.038 59.6486 281.171 50.8389 272.215C45.4798 266.714 41.8912 259.734 40.5342 252.174C39.8148 248.007 40.0302 237.046 40.0302 232.462V195.695L40.0259 69.3792C40.0776 56.093 41.7706 47.185 51.4377 37.4357C62.7547 26.0226 75.8422 27.1574 90.2739 27.1664L123.372 27.1996C162.255 27.2142 201.742 26.8407 240.561 27.2534C237.658 27.5033 235.516 27.5335 232.6 27.5335C232.053 31.8569 229.636 58.5753 230.773 61.7463C231.514 61.9044 232.255 62.0703 233.005 62.2051C196.426 64.6309 155.402 77.1692 144.726 116.361C141.892 126.761 141.663 136.262 141.681 146.889C157.969 121.926 174.688 106.341 201.199 92.6085C194.259 98.9149 187.78 104.417 181.129 111.2C154.402 138.455 131.966 175.029 132.647 214.379C133.138 242.452 145.088 263.98 164.784 283.038Z" fill="#2D6A4F"/>
<path d="M72.4009 108.484C72.9179 108.527 73.4348 108.58 73.9518 108.645C91.0414 110.626 110.944 117.403 121.68 131.546C131.019 143.854 131.743 155.57 129.929 170.394C123.562 156.294 113.516 144.168 100.846 135.289C99.1015 134.081 96.0731 131.884 94.2207 131.123L94.5179 131.788C107.067 142.282 119.698 162.098 124.876 177.409C112.913 175.247 101.686 172.954 92.0322 165.012C74.7702 150.814 71.8495 129.361 72.4009 108.484Z" fill="#FBFCFC"/>
<path d="M240.561 27.2512C256.754 27.003 271.905 25.1097 284.437 37.3033C292.631 45.2787 295.914 54.4899 295.901 65.7294C295.853 108.31 295.862 150.917 295.862 193.498L295.884 229.576C295.931 245.27 297.702 259.917 285.536 272.068C277.704 279.888 268.838 282.972 257.892 283.043L232.509 283.018C206.27 282.998 186.578 281.103 166.516 261.269C151.571 246.744 143.21 226.74 143.373 205.898C143.365 189.702 147.811 171.489 155.97 157.408C210.888 153.24 233.737 113.89 233.005 62.2029C232.255 62.068 231.514 61.9022 230.773 61.7441C229.636 58.573 232.053 31.8547 232.6 27.5312C235.516 27.5312 237.657 27.501 240.561 27.2512Z" fill="#2D6A4F"/>
<path d="M204.994 159.078L233.926 159.081L233.918 189.031L263.97 189.061L263.961 218.064L234.06 218.053C233.982 227.98 233.978 237.907 234.047 247.834C224.363 247.781 214.678 247.781 204.999 247.833L204.942 218.033L175.14 218.052C174.722 209.336 174.981 198.024 174.946 189.112C184.717 188.905 195.146 189.077 204.964 189.072C204.917 179.074 204.925 169.076 204.994 159.078Z" fill="#FBFCFC"/>
</g>
<path d="M388.31 129.32C382.223 129.32 376.613 128.367 371.48 126.46C366.42 124.48 361.983 121.693 358.17 118.1C354.43 114.507 351.497 110.29 349.37 105.45C347.317 100.61 346.29 95.2933 346.29 89.5C346.29 83.7067 347.317 78.39 349.37 73.55C351.497 68.71 354.467 64.4933 358.28 60.9C362.093 57.3067 366.567 54.5567 371.7 52.65C376.833 50.67 382.48 49.68 388.64 49.68C395.46 49.68 401.583 50.8167 407.01 53.09C412.51 55.3633 417.13 58.6633 420.87 62.99L409.43 73.55C406.643 70.6167 403.6 68.4533 400.3 67.06C397 65.5933 393.407 64.86 389.52 64.86C385.78 64.86 382.37 65.4467 379.29 66.62C376.21 67.7933 373.533 69.48 371.26 71.68C369.06 73.88 367.337 76.4833 366.09 79.49C364.917 82.4967 364.33 85.8333 364.33 89.5C364.33 93.0933 364.917 96.3933 366.09 99.4C367.337 102.407 369.06 105.047 371.26 107.32C373.533 109.52 376.173 111.207 379.18 112.38C382.26 113.553 385.633 114.14 389.3 114.14C392.82 114.14 396.23 113.59 399.53 112.49C402.903 111.317 406.167 109.373 409.32 106.66L419.44 119.53C415.26 122.683 410.383 125.103 404.81 126.79C399.31 128.477 393.81 129.32 388.31 129.32ZM403.16 117.22V88.29H419.44V119.53L403.16 117.22ZM452.383 82.02H489.453V95.88H452.383V82.02ZM453.703 113.7H495.613V128H435.993V51H494.183V65.3H453.703V113.7ZM535.092 129.32C528.932 129.32 523.029 128.513 517.382 126.9C511.735 125.213 507.189 123.05 503.742 120.41L509.792 106.99C513.092 109.337 516.979 111.28 521.452 112.82C525.999 114.287 530.582 115.02 535.202 115.02C538.722 115.02 541.545 114.69 543.672 114.03C545.872 113.297 547.485 112.307 548.512 111.06C549.539 109.813 550.052 108.383 550.052 106.77C550.052 104.717 549.245 103.103 547.632 101.93C546.019 100.683 543.892 99.6933 541.252 98.96C538.612 98.1533 535.679 97.42 532.452 96.76C529.299 96.0267 526.109 95.1467 522.882 94.12C519.729 93.0933 516.832 91.7733 514.192 90.16C511.552 88.5467 509.389 86.42 507.702 83.78C506.089 81.14 505.282 77.7667 505.282 73.66C505.282 69.26 506.455 65.2633 508.802 61.67C511.222 58.0033 514.815 55.1067 519.582 52.98C524.422 50.78 530.472 49.68 537.732 49.68C542.572 49.68 547.339 50.2667 552.032 51.44C556.725 52.54 560.869 54.2267 564.462 56.5L558.962 70.03C555.369 67.9767 551.775 66.4733 548.182 65.52C544.589 64.4933 541.069 63.98 537.622 63.98C534.175 63.98 531.352 64.3833 529.152 65.19C526.952 65.9967 525.375 67.06 524.422 68.38C523.469 69.6267 522.992 71.0933 522.992 72.78C522.992 74.76 523.799 76.3733 525.412 77.62C527.025 78.7933 529.152 79.7467 531.792 80.48C534.432 81.2133 537.329 81.9467 540.482 82.68C543.709 83.4133 546.899 84.2567 550.052 85.21C553.279 86.1633 556.212 87.4467 558.852 89.06C561.492 90.6733 563.619 92.8 565.232 95.44C566.919 98.08 567.762 101.417 567.762 105.45C567.762 109.777 566.552 113.737 564.132 117.33C561.712 120.923 558.082 123.82 553.242 126.02C548.475 128.22 542.425 129.32 535.092 129.32ZM614.149 129.32C603.222 129.32 594.679 126.277 588.519 120.19C582.359 114.103 579.279 105.413 579.279 94.12V51H597.099V93.46C597.099 100.793 598.602 106.073 601.609 109.3C604.615 112.527 608.832 114.14 614.259 114.14C619.685 114.14 623.902 112.527 626.909 109.3C629.915 106.073 631.419 100.793 631.419 93.46V51H649.019V94.12C649.019 105.413 645.939 114.103 639.779 120.19C633.619 126.277 625.075 129.32 614.149 129.32ZM666.628 128V51H681.368L726.798 106.44H719.648V51H737.248V128H722.618L677.078 72.56H684.228V128H666.628ZM755.466 128V51H790.446C798.806 51 806.176 52.6133 812.556 55.84C818.936 58.9933 823.923 63.43 827.516 69.15C831.109 74.87 832.906 81.6533 832.906 89.5C832.906 97.2733 831.109 104.057 827.516 109.85C823.923 115.57 818.936 120.043 812.556 123.27C806.176 126.423 798.806 128 790.446 128H755.466ZM773.286 113.37H789.566C794.699 113.37 799.136 112.417 802.876 110.51C806.689 108.53 809.623 105.743 811.676 102.15C813.803 98.5567 814.866 94.34 814.866 89.5C814.866 84.5867 813.803 80.37 811.676 76.85C809.623 73.2567 806.689 70.5067 802.876 68.6C799.136 66.62 794.699 65.63 789.566 65.63H773.286V113.37ZM899.145 51H916.965V128H899.145V51ZM864.165 128H846.345V51H864.165V128ZM900.465 96.43H862.845V81.36H900.465V96.43ZM951.573 82.02H988.643V95.88H951.573V82.02ZM952.893 113.7H994.803V128H935.183V51H993.373V65.3H952.893V113.7ZM1008.98 128V51H1026.8V128H1008.98ZM1061.03 128V65.52H1036.39V51H1103.49V65.52H1078.85V128H1061.03ZM1137.84 129.32C1131.68 129.32 1125.77 128.513 1120.13 126.9C1114.48 125.213 1109.93 123.05 1106.49 120.41L1112.54 106.99C1115.84 109.337 1119.72 111.28 1124.2 112.82C1128.74 114.287 1133.33 115.02 1137.95 115.02C1141.47 115.02 1144.29 114.69 1146.42 114.03C1148.62 113.297 1150.23 112.307 1151.26 111.06C1152.28 109.813 1152.8 108.383 1152.8 106.77C1152.8 104.717 1151.99 103.103 1150.38 101.93C1148.76 100.683 1146.64 99.6933 1144 98.96C1141.36 98.1533 1138.42 97.42 1135.2 96.76C1132.04 96.0267 1128.85 95.1467 1125.63 94.12C1122.47 93.0933 1119.58 91.7733 1116.94 90.16C1114.3 88.5467 1112.13 86.42 1110.45 83.78C1108.83 81.14 1108.03 77.7667 1108.03 73.66C1108.03 69.26 1109.2 65.2633 1111.55 61.67C1113.97 58.0033 1117.56 55.1067 1122.33 52.98C1127.17 50.78 1133.22 49.68 1140.48 49.68C1145.32 49.68 1150.08 50.2667 1154.78 51.44C1159.47 52.54 1163.61 54.2267 1167.21 56.5L1161.71 70.03C1158.11 67.9767 1154.52 66.4733 1150.93 65.52C1147.33 64.4933 1143.81 63.98 1140.37 63.98C1136.92 63.98 1134.1 64.3833 1131.9 65.19C1129.7 65.9967 1128.12 67.06 1127.17 68.38C1126.21 69.6267 1125.74 71.0933 1125.74 72.78C1125.74 74.76 1126.54 76.3733 1128.16 77.62C1129.77 78.7933 1131.9 79.7467 1134.54 80.48C1137.18 81.2133 1140.07 81.9467 1143.23 82.68C1146.45 83.4133 1149.64 84.2567 1152.8 85.21C1156.02 86.1633 1158.96 87.4467 1161.6 89.06C1164.24 90.6733 1166.36 92.8 1167.98 95.44C1169.66 98.08 1170.51 101.417 1170.51 105.45C1170.51 109.777 1169.3 113.737 1166.88 117.33C1164.46 120.923 1160.83 123.82 1155.99 126.02C1151.22 128.22 1145.17 129.32 1137.84 129.32ZM403.93 185H421.75V262H403.93V185ZM368.95 262H351.13V185H368.95V262ZM405.25 230.43H367.63V215.36H405.25V230.43ZM477.368 263.32C471.281 263.32 465.635 262.33 460.428 260.35C455.295 258.37 450.821 255.583 447.008 251.99C443.268 248.397 440.335 244.18 438.208 239.34C436.155 234.5 435.128 229.22 435.128 223.5C435.128 217.78 436.155 212.5 438.208 207.66C440.335 202.82 443.305 198.603 447.118 195.01C450.931 191.417 455.405 188.63 460.538 186.65C465.671 184.67 471.245 183.68 477.258 183.68C483.345 183.68 488.918 184.67 493.978 186.65C499.111 188.63 503.548 191.417 507.288 195.01C511.101 198.603 514.071 202.82 516.198 207.66C518.325 212.427 519.388 217.707 519.388 223.5C519.388 229.22 518.325 234.537 516.198 239.45C514.071 244.29 511.101 248.507 507.288 252.1C503.548 255.62 499.111 258.37 493.978 260.35C488.918 262.33 483.381 263.32 477.368 263.32ZM477.258 248.14C480.705 248.14 483.858 247.553 486.718 246.38C489.651 245.207 492.218 243.52 494.418 241.32C496.618 239.12 498.305 236.517 499.478 233.51C500.725 230.503 501.348 227.167 501.348 223.5C501.348 219.833 500.725 216.497 499.478 213.49C498.305 210.483 496.618 207.88 494.418 205.68C492.291 203.48 489.761 201.793 486.828 200.62C483.895 199.447 480.705 198.86 477.258 198.86C473.811 198.86 470.621 199.447 467.688 200.62C464.828 201.793 462.298 203.48 460.098 205.68C457.898 207.88 456.175 210.483 454.928 213.49C453.755 216.497 453.168 219.833 453.168 223.5C453.168 227.093 453.755 230.43 454.928 233.51C456.175 236.517 457.861 239.12 459.988 241.32C462.188 243.52 464.755 245.207 467.688 246.38C470.621 247.553 473.811 248.14 477.258 248.14ZM532.78 262V185H566.11C573.004 185 578.944 186.137 583.93 188.41C588.917 190.61 592.767 193.8 595.48 197.98C598.194 202.16 599.55 207.147 599.55 212.94C599.55 218.66 598.194 223.61 595.48 227.79C592.767 231.897 588.917 235.05 583.93 237.25C578.944 239.45 573.004 240.55 566.11 240.55H542.68L550.6 232.74V262H532.78ZM581.73 262L562.48 234.06H581.51L600.98 262H581.73ZM550.6 234.72L542.68 226.36H565.12C570.62 226.36 574.727 225.187 577.44 222.84C580.154 220.42 581.51 217.12 581.51 212.94C581.51 208.687 580.154 205.387 577.44 203.04C574.727 200.693 570.62 199.52 565.12 199.52H542.68L550.6 191.05V234.72ZM613.669 262V185H631.489V262H613.669ZM644.813 262V250.45L692.443 193.03L694.643 199.52H645.693V185H710.483V196.55L662.963 253.97L660.763 247.48H712.133V262H644.813ZM760.21 263.32C754.123 263.32 748.476 262.33 743.27 260.35C738.136 258.37 733.663 255.583 729.85 251.99C726.11 248.397 723.176 244.18 721.05 239.34C718.996 234.5 717.97 229.22 717.97 223.5C717.97 217.78 718.996 212.5 721.05 207.66C723.176 202.82 726.146 198.603 729.96 195.01C733.773 191.417 738.246 188.63 743.38 186.65C748.513 184.67 754.086 183.68 760.1 183.68C766.186 183.68 771.76 184.67 776.82 186.65C781.953 188.63 786.39 191.417 790.13 195.01C793.943 198.603 796.913 202.82 799.04 207.66C801.166 212.427 802.23 217.707 802.23 223.5C802.23 229.22 801.166 234.537 799.04 239.45C796.913 244.29 793.943 248.507 790.13 252.1C786.39 255.62 781.953 258.37 776.82 260.35C771.76 262.33 766.223 263.32 760.21 263.32ZM760.1 248.14C763.546 248.14 766.7 247.553 769.56 246.38C772.493 245.207 775.06 243.52 777.26 241.32C779.46 239.12 781.146 236.517 782.32 233.51C783.566 230.503 784.19 227.167 784.19 223.5C784.19 219.833 783.566 216.497 782.32 213.49C781.146 210.483 779.46 207.88 777.26 205.68C775.133 203.48 772.603 201.793 769.67 200.62C766.736 199.447 763.546 198.86 760.1 198.86C756.653 198.86 753.463 199.447 750.53 200.62C747.67 201.793 745.14 203.48 742.94 205.68C740.74 207.88 739.016 210.483 737.77 213.49C736.596 216.497 736.01 219.833 736.01 223.5C736.01 227.093 736.596 230.43 737.77 233.51C739.016 236.517 740.703 239.12 742.83 241.32C745.03 243.52 747.596 245.207 750.53 246.38C753.463 247.553 756.653 248.14 760.1 248.14ZM815.622 262V185H830.362L875.792 240.44H868.642V185H886.242V262H871.612L826.072 206.56H833.222V262H815.622ZM920.41 262V199.52H895.77V185H962.87V199.52H938.23V262H920.41Z" fill="white"/>
</g>
<defs>
<clipPath id="clip0_2439_260">
<rect width="1213" height="317" fill="white"/>
</clipPath>
<clipPath id="clip1_2439_260">
<rect width="256" height="256" fill="white" transform="translate(40 27)"/>
</clipPath>
</defs>
</svg>
