<svg xmlns="http://www.w3.org/2000/svg" fill="none" viewBox="0 0 800 99" height="99" width="800">
<rect stroke="#F3F3F3" fill="white" rx="3.5" height="57" width="83" y="21.5" x="698.5"></rect>
<path fill="#5F6368" d="M738.432 55.9714V49.4303V49.429H741.966C743.424 49.4298 744.648 48.9714 745.64 48.0537C746.643 47.1828 747.203 45.9305 747.175 44.6253C747.195 43.3273 746.635 42.0843 745.64 41.2162C744.657 40.2935 743.334 39.79 741.966 39.8177H736.293V55.9714H738.432ZM738.432 47.4454V41.8065V41.8052H742.02C742.819 41.7834 743.59 42.0955 744.136 42.6623C744.686 43.1807 744.996 43.8926 744.996 44.6362C744.996 45.3799 744.686 46.0918 744.136 46.6102C743.583 47.165 742.815 47.4682 742.02 47.4454H738.432Z" clip-rule="evenodd" fill-rule="evenodd"></path>
<path fill="#5F6368" d="M755.849 45.7879C754.934 44.9682 753.685 44.5583 752.104 44.5583C750.073 44.5583 748.539 45.2801 747.503 46.7237L749.387 47.8747C750.083 46.8968 751.029 46.4079 752.224 46.4079C752.986 46.3993 753.723 46.6694 754.289 47.1645C754.853 47.6168 755.177 48.2912 755.172 49.0011V49.4755C754.35 49.0243 753.304 48.7988 752.034 48.7988C750.546 48.8005 749.356 49.1391 748.465 49.8144C747.574 50.4898 747.128 51.3993 747.128 52.543C747.109 53.5844 747.575 54.5788 748.396 55.2497C749.241 55.9715 750.291 56.3323 751.546 56.3323C753.017 56.3323 754.195 55.7008 755.081 54.4377H755.174V55.9715H757.22V49.1597C757.221 47.7316 756.764 46.6077 755.849 45.7879ZM750.046 53.9415C749.598 53.6281 749.334 53.124 749.337 52.5881C749.337 51.9862 749.628 51.4848 750.214 51.0724C750.794 50.666 751.518 50.4628 752.387 50.4628C753.581 50.4628 754.511 50.7205 755.178 51.2361C755.178 52.1074 754.823 52.8665 754.115 53.5135C753.476 54.1328 752.611 54.4813 751.708 54.4828C751.107 54.4937 750.519 54.3025 750.046 53.9415Z" clip-rule="evenodd" fill-rule="evenodd"></path>
<path fill="#5F6368" d="M768.966 44.9192L761.823 60.8434H759.614L762.265 55.2715L757.568 44.9192H759.893L763.288 52.8587H763.335L766.636 44.9192H768.966Z" clip-rule="evenodd" fill-rule="evenodd"></path>
<path fill="#4285F4" d="M729.788 48.0202C729.788 47.3878 729.733 46.7566 729.623 46.1333H720.601V49.7074H725.768C725.555 50.8609 724.864 51.8796 723.858 52.5275V54.8475H726.942C728.747 53.2325 729.788 50.8442 729.788 48.0202Z" clip-rule="evenodd" fill-rule="evenodd"></path>
<path fill="#34A853" d="M720.601 57.0889C723.183 57.0889 725.356 56.2666 726.942 54.8488L723.858 52.5288C722.999 53.0933 721.894 53.4155 720.601 53.4155C718.106 53.4155 715.988 51.7838 715.23 49.585H712.054V51.9759C713.677 55.1104 716.985 57.0887 720.601 57.0889Z" clip-rule="evenodd" fill-rule="evenodd"></path>
<path fill="#FBBC04" d="M715.231 49.585C714.83 48.4328 714.83 47.1851 715.231 46.0329V43.642H712.054C710.695 46.2637 710.695 49.3542 712.054 51.9759L715.231 49.585Z" clip-rule="evenodd" fill-rule="evenodd"></path>
<path fill="#EA4335" d="M720.601 42.2023C721.965 42.1806 723.284 42.6807 724.271 43.5943V43.5943L727.001 40.9456C725.27 39.3681 722.976 38.502 720.601 38.5289C716.985 38.5291 713.677 40.5074 712.054 43.642L715.23 46.0328C715.988 43.834 718.106 42.2023 720.601 42.2023Z" clip-rule="evenodd" fill-rule="evenodd"></path>
<rect stroke="#F3F3F3" fill="white" rx="3.5" height="57" width="83" y="20.5" x="605.5"></rect>
<path fill="black" d="M630.457 41.6435C629.846 42.3753 628.868 42.9526 627.89 42.8701C627.768 41.8805 628.247 40.8291 628.807 40.1797C629.418 39.4272 630.487 38.8912 631.353 38.85C631.454 39.8808 631.057 40.891 630.457 41.6435ZM631.342 43.066C630.481 43.0158 629.695 43.3282 629.061 43.5805C628.652 43.7428 628.306 43.8803 628.043 43.8803C627.748 43.8803 627.388 43.7355 626.983 43.5728C626.453 43.3598 625.847 43.1161 625.212 43.1278C623.756 43.1484 622.402 43.9834 621.658 45.3131C620.131 47.9726 621.261 51.9103 622.738 54.075C623.461 55.147 624.326 56.3221 625.467 56.2809C625.969 56.2617 626.329 56.1067 626.703 55.9463C627.133 55.7615 627.58 55.5696 628.277 55.5696C628.951 55.5696 629.378 55.7565 629.788 55.9359C630.178 56.1065 630.552 56.2703 631.108 56.2603C632.29 56.2397 633.033 55.1882 633.756 54.1162C634.536 52.9656 634.879 51.8427 634.931 51.6723L634.937 51.6526C634.936 51.6513 634.926 51.6469 634.909 51.639C634.648 51.5181 632.655 50.5943 632.636 48.1169C632.617 46.0376 634.217 44.984 634.469 44.8182C634.484 44.8081 634.495 44.8013 634.499 44.7977C633.481 43.2721 631.892 43.1072 631.342 43.066ZM639.52 56.1469V40.0766H645.477C648.552 40.0766 650.701 42.2207 650.701 45.3544C650.701 48.488 648.511 50.6527 645.395 50.6527H641.984V56.1469H639.52ZM641.984 42.1795H644.825C646.963 42.1795 648.185 43.334 648.185 45.3647C648.185 47.3954 646.963 48.5602 644.815 48.5602H641.984V42.1795ZM658.837 54.2193C658.185 55.4769 656.75 56.2706 655.202 56.2706C652.91 56.2706 651.312 54.8893 651.312 52.8071C651.312 50.7455 652.86 49.56 655.721 49.3848L658.796 49.1993V48.3128C658.796 47.0036 657.951 46.2924 656.444 46.2924C655.202 46.2924 654.295 46.9418 654.112 47.9314H651.892C651.963 45.8491 653.898 44.3339 656.515 44.3339C659.336 44.3339 661.169 45.8285 661.169 48.1478V56.1469H658.888V54.2193H658.837ZM655.864 54.3636C654.55 54.3636 653.715 53.7245 653.715 52.7452C653.715 51.735 654.519 51.1475 656.057 51.0547L658.796 50.8795V51.7866C658.796 53.2916 657.534 54.3636 655.864 54.3636ZM668.735 56.7757C667.747 59.5898 666.617 60.5175 664.214 60.5175C664.03 60.5175 663.42 60.4969 663.277 60.4557V58.5281C663.43 58.5487 663.806 58.5693 664 58.5693C665.09 58.5693 665.701 58.1054 666.077 56.8994L666.301 56.1881L662.126 44.4885H664.703L667.605 53.9822H667.656L670.558 44.4885H673.063L668.735 56.7757Z" clip-rule="evenodd" fill-rule="evenodd"></path>
<rect stroke="#F3F3F3" fill="#006FCF" rx="3.5" height="57" width="83" y="20.5" x="410.5"></rect>
<path fill="white" d="M427.181 61.896V49.9559H440.684L442.133 51.7241L443.63 49.9559H492.643V61.0725C492.643 61.0725 491.361 61.884 489.879 61.896H462.739L461.106 60.0138V61.896H455.753V58.683C455.753 58.683 455.022 59.1315 453.441 59.1315H451.62V61.896H443.515L442.069 60.0898L440.6 61.896H427.181ZM411.448 40.9567L414.486 34.3103H419.741L421.465 38.0334V34.3103H427.996L429.022 37.0012L430.018 34.3103H459.337V35.6631C459.337 35.6631 460.878 34.3103 463.411 34.3103L472.924 34.3415L474.618 38.0158V34.3103H480.084L481.588 36.4209V34.3103H487.104V46.2504H481.588L480.147 44.1329V46.2504H472.116L471.309 44.3682H469.15L468.355 46.2504H462.909C460.73 46.2504 459.337 44.9252 459.337 44.9252V46.2504H451.125L449.496 44.3682V46.2504H418.962L418.155 44.3682H416.003L415.202 46.2504H411.448V40.9567ZM411.464 44.7226L415.562 35.7823H418.668L422.762 44.7226H420.036L419.283 42.9323H414.888L414.132 44.7226H411.464ZM418.418 40.9913L417.078 37.8629L415.734 40.9913H418.418ZM423.044 44.7211V35.7807L426.835 35.794L429.041 41.5581L431.193 35.7807H434.954V44.7211H432.572V38.1335L430.047 44.7211H427.958L425.426 38.1335V44.7211H423.044ZM436.583 44.7211V35.7807H444.356V37.7806H438.99V39.3098H444.23V41.192H438.99V42.7801H444.356V44.7211H436.583ZM445.735 44.7226V35.7823H451.035C452.792 35.7823 454.365 36.8014 454.365 38.6827C454.365 40.291 453.038 41.3269 451.752 41.4288L454.886 44.7226H451.975L449.12 41.5464H448.117V44.7226H445.735ZM450.839 37.7821H448.117V39.6642H450.875C451.352 39.6642 451.968 39.3171 451.968 38.7232C451.968 38.2615 451.492 37.7821 450.839 37.7821ZM457.77 44.7211H455.338V35.7807H457.77V44.7211ZM463.536 44.7211H463.011C460.471 44.7211 458.929 42.8433 458.929 40.2877C458.929 37.6689 460.454 35.7807 463.662 35.7807H466.294V37.8982H463.565C462.263 37.8982 461.342 38.8517 461.342 40.3097C461.342 42.0411 462.395 42.7683 463.912 42.7683H464.539L463.536 44.7211ZM464.621 44.7226L468.719 35.7823H471.826L475.92 44.7226H473.193L472.441 42.9323H468.045L467.289 44.7226H464.621ZM471.575 40.9913L470.235 37.8629L468.891 40.9913H471.575ZM476.198 44.7211V35.7807H479.226L483.093 41.3979V35.7807H485.475V44.7211H482.544L478.58 38.9569V44.7211H476.198ZM428.811 60.3667V51.4263H436.583V53.4262H431.218V54.9554H436.458V56.8376H431.218V58.4257H436.583V60.3667H428.811ZM466.896 60.3667V51.4263H474.668V53.4262H469.303V54.9554H474.518V56.8376H469.303V58.4257H474.668V60.3667H466.896ZM436.885 60.3667L440.669 55.9517L436.795 51.4263H439.796L442.103 54.2239L444.418 51.4263H447.302L443.478 55.8965L447.27 60.3667H444.269L442.029 57.6133L439.843 60.3667H436.885ZM447.553 60.3682V51.4279H452.814C454.973 51.4279 456.234 52.7335 456.234 54.4349C456.234 56.4888 454.626 57.5449 452.504 57.5449H449.997V60.3682H447.553ZM452.638 53.4497H449.997V55.5084H452.63C453.325 55.5084 453.813 55.0757 453.813 54.479C453.813 53.8439 453.323 53.4497 452.638 53.4497ZM457.268 60.3667V51.4263H462.569C464.325 51.4263 465.898 52.4455 465.898 54.3268C465.898 55.9351 464.572 56.971 463.285 57.0729L466.42 60.3667H463.509L460.653 57.1905H459.65V60.3667H457.268ZM462.373 53.4262H459.65V55.3083H462.408C462.885 55.3083 463.501 54.9612 463.501 54.3672C463.501 53.9056 463.026 53.4262 462.373 53.4262ZM475.772 60.3667V58.4257H480.538C481.244 58.4257 481.549 58.068 481.549 57.6758C481.549 57.2999 481.245 56.92 480.538 56.92H478.384C476.512 56.92 475.469 55.8495 475.469 54.2423C475.469 52.8088 476.424 51.4263 479.206 51.4263H483.845L482.842 53.4379H478.83C478.064 53.4379 477.827 53.8155 477.827 54.1761C477.827 54.5467 478.119 54.9554 478.705 54.9554H480.961C483.049 54.9554 483.955 56.0665 483.955 57.5214C483.955 59.0856 482.945 60.3667 480.848 60.3667H475.772ZM484.165 60.3667V58.4257H488.931C489.637 58.4257 489.942 58.068 489.942 57.6758C489.942 57.2999 489.638 56.92 488.931 56.92H486.777C484.905 56.92 483.862 55.8495 483.862 54.2423C483.862 52.8088 484.817 51.4263 487.599 51.4263H492.238L491.235 53.4379H487.223C486.456 53.4379 486.22 53.8155 486.22 54.1761C486.22 54.5467 486.512 54.9554 487.098 54.9554H489.354C491.442 54.9554 492.348 56.0665 492.348 57.5214C492.348 59.0856 491.338 60.3667 489.241 60.3667H484.165Z" clip-rule="evenodd" fill-rule="evenodd"></path>
<rect stroke="#F3F3F3" fill="#F4B6C7" rx="3.5" height="57" width="83" y="20.5" x="18.5"></rect>
<path fill="#17120F" d="M49.8889 46.2773C51.0485 46.2773 52.124 46.644 53.0148 47.2686V46.5762H56.1682V57.4004H53.0148V56.709C52.124 57.3334 51.0485 57.7002 49.8889 57.7002C46.8198 57.7002 44.3322 55.1426 44.3322 51.9883C44.3324 48.8342 46.8199 46.2774 49.8889 46.2773ZM83.1535 46.2773C84.3132 46.2773 85.3887 46.6441 86.2795 47.2686V46.5762H89.4328V57.4004H86.2795V56.709C85.3888 57.3332 84.3131 57.7002 83.1535 57.7002C80.0846 57.6999 77.5969 55.1424 77.5969 51.9883C77.597 48.8343 80.0847 46.2776 83.1535 46.2773ZM92.7795 53.5615C93.8722 53.5615 94.7589 54.4716 94.759 55.5947C94.759 56.7177 93.8722 57.6289 92.7795 57.6289C91.6869 57.6287 90.801 56.7175 90.801 55.5947C90.8011 54.4717 91.687 53.5618 92.7795 53.5615ZM37.4641 41.75C37.4641 45.139 36.1794 48.2914 33.8898 50.6348L38.7199 57.4053H34.4035L29.1545 50.0479L30.509 49.0049C32.7559 47.275 34.0451 44.6308 34.0451 41.75H37.4641ZM28.7365 41.75V57.4043H25.2414V41.75H28.7365ZM61.0451 47.9863C61.6772 47.1407 62.8555 46.5771 64.1359 46.5771V49.7266C64.1232 49.7264 64.1106 49.7256 64.0978 49.7256C62.8503 49.7258 61.053 50.642 61.0529 52.3467V57.4004H57.8176V46.5762H61.0451V47.9863ZM71.9943 46.2852C74.5343 46.2854 76.4826 47.9989 76.4826 50.5176V57.4004H73.3332V51.6895C73.333 50.111 72.5362 49.2607 71.1506 49.2607C69.8577 49.2608 68.7836 50.0663 68.7834 51.7119V57.4004H65.6057V46.5771H68.7453V47.7959C69.5423 46.6872 70.7348 46.2852 71.9943 46.2852ZM43.0392 57.3994H39.7385V41.752H43.0392V57.3994ZM50.1467 49.2041C48.5691 49.2042 47.2904 50.4505 47.2902 51.9883C47.2902 53.5262 48.5689 54.7733 50.1467 54.7734C51.7247 54.7734 53.0041 53.5263 53.0041 51.9883C53.0039 50.4504 51.7245 49.2041 50.1467 49.2041ZM83.4123 49.2041C81.8344 49.2041 80.5551 50.4504 80.5549 51.9883C80.5549 53.5263 81.8343 54.7734 83.4123 54.7734C84.9902 54.7733 86.2687 53.5262 86.2687 51.9883C86.2685 50.4505 84.9901 49.2042 83.4123 49.2041Z"></path>
<rect stroke="#F3F3F3" fill="white" rx="3.5" height="57" width="83" y="20.5" x="508.5"></rect>
<path fill="#28356A" d="M546.29 49.3714L546.656 47.0392L545.842 47.0201H541.952L544.655 29.8093C544.663 29.7572 544.691 29.7088 544.73 29.6744C544.77 29.64 544.821 29.6211 544.875 29.6211H551.434C553.611 29.6211 555.114 30.076 555.899 30.974C556.266 31.3952 556.501 31.8355 556.614 32.3199C556.733 32.8283 556.735 33.4356 556.619 34.1765L556.611 34.2303V34.7051L556.978 34.9144C557.288 35.0794 557.534 35.2682 557.723 35.4843C558.038 35.8446 558.241 36.3024 558.327 36.845C558.416 37.4032 558.387 38.0675 558.241 38.8195C558.073 39.6845 557.802 40.4379 557.436 41.0543C557.099 41.6222 556.669 42.0934 556.159 42.4584C555.673 42.8054 555.095 43.0687 554.441 43.2372C553.807 43.4028 553.085 43.4864 552.292 43.4864H551.782C551.417 43.4864 551.063 43.6184 550.784 43.855C550.505 44.0965 550.321 44.4265 550.264 44.7874L550.225 44.9974L549.579 49.1083L549.55 49.2591C549.542 49.3069 549.529 49.3307 549.509 49.3469C549.492 49.3616 549.467 49.3714 549.442 49.3714H546.29" clip-rule="evenodd" fill-rule="evenodd"></path>
<path fill="#298FC2" d="M557.327 34.2852C557.308 34.4108 557.285 34.5392 557.26 34.6712C556.395 39.1304 553.436 40.6709 549.656 40.6709H547.732C547.269 40.6709 546.88 41.0078 546.808 41.4656L545.543 49.5181C545.497 49.8188 545.727 50.0896 546.029 50.0896H549.443C549.847 50.0896 550.19 49.7948 550.254 49.3946L550.287 49.2205L550.93 45.1258L550.971 44.9012C551.034 44.4996 551.378 44.2046 551.782 44.2046H552.293C555.6 44.2046 558.189 42.8566 558.945 38.9556C559.261 37.326 559.098 35.9653 558.261 35.0083C558.008 34.7198 557.694 34.4802 557.327 34.2852" clip-rule="evenodd" fill-rule="evenodd"></path>
<path fill="#22284F" d="M556.422 33.9229C556.29 33.8842 556.154 33.8492 556.014 33.8175C555.873 33.7866 555.729 33.7593 555.581 33.7353C555.062 33.6511 554.493 33.6112 553.884 33.6112H548.743C548.617 33.6112 548.496 33.6399 548.389 33.6918C548.152 33.8063 547.975 34.0317 547.933 34.3076L546.839 41.2629L546.808 41.4656C546.88 41.0078 547.269 40.6709 547.731 40.6709H549.656C553.435 40.6709 556.395 39.1296 557.26 34.6712C557.286 34.5393 557.307 34.4108 557.327 34.2852C557.108 34.1686 556.871 34.0688 556.616 33.9839C556.553 33.9628 556.488 33.9426 556.422 33.9229" clip-rule="evenodd" fill-rule="evenodd"></path>
<path fill="#28356A" d="M547.933 34.3077C547.975 34.0317 548.152 33.8064 548.389 33.6927C548.497 33.6406 548.617 33.6118 548.743 33.6118H553.884C554.493 33.6118 555.062 33.652 555.581 33.7361C555.729 33.7599 555.873 33.7875 556.014 33.8183C556.153 33.8498 556.29 33.885 556.422 33.9236C556.488 33.9432 556.553 33.9637 556.616 33.9839C556.872 34.0689 557.109 34.1694 557.328 34.2852C557.585 32.6374 557.325 31.5154 556.438 30.4994C555.46 29.3808 553.694 28.9021 551.435 28.9021H544.875C544.414 28.9021 544.02 29.239 543.949 29.6976L541.217 47.0854C541.163 47.4294 541.427 47.7397 541.773 47.7397H545.822L547.933 34.3077" clip-rule="evenodd" fill-rule="evenodd"></path>
<path fill="#28356A" d="M526.965 54.1052H522.182C521.855 54.1052 521.577 54.344 521.525 54.6685L519.591 66.9813C519.553 67.2244 519.74 67.4433 519.986 67.4433H522.269C522.596 67.4433 522.874 67.2047 522.926 66.8796L523.447 63.5585C523.497 63.2335 523.776 62.9947 524.103 62.9947H525.617C528.767 62.9947 530.585 61.4641 531.06 58.4311C531.274 57.104 531.069 56.0615 530.45 55.3312C529.771 54.5294 528.565 54.1052 526.965 54.1052ZM527.516 58.6024C527.255 60.3254 525.943 60.3254 524.676 60.3254H523.954L524.46 57.1075C524.49 56.913 524.658 56.7698 524.854 56.7698H525.185C526.048 56.7698 526.863 56.7698 527.284 57.2641C527.535 57.5589 527.612 57.997 527.516 58.6024V58.6024Z" clip-rule="evenodd" fill-rule="evenodd"></path>
<path fill="#28356A" d="M541.382 58.4538H539.092C538.897 58.4538 538.728 58.5969 538.698 58.7914L538.597 59.4345L538.437 59.2015C537.941 58.4789 536.835 58.2374 535.732 58.2374C533.201 58.2374 531.04 60.162 530.619 62.8616C530.4 64.2082 530.711 65.496 531.472 66.3939C532.17 67.2195 533.168 67.5637 534.356 67.5637C536.396 67.5637 537.526 66.2472 537.526 66.2472L537.424 66.8862C537.386 67.1305 537.573 67.3495 537.817 67.3495H539.88C540.208 67.3495 540.485 67.1108 540.537 66.7857L541.774 58.9157C541.814 58.6734 541.627 58.4538 541.382 58.4538ZM538.19 62.9291C537.969 64.2426 536.93 65.1245 535.606 65.1245C534.941 65.1245 534.41 64.9103 534.068 64.5046C533.73 64.1016 533.601 63.5279 533.709 62.889C533.915 61.5866 534.971 60.6759 536.275 60.6759C536.926 60.6759 537.454 60.893 537.802 61.3021C538.151 61.7157 538.29 62.2929 538.19 62.9291V62.9291Z" clip-rule="evenodd" fill-rule="evenodd"></path>
<path fill="#28356A" d="M553.403 58.6508H551.101C550.882 58.6508 550.676 58.7603 550.551 58.9436L547.377 63.6378L546.032 59.1267C545.947 58.8445 545.688 58.6508 545.394 58.6508H543.133C542.858 58.6508 542.667 58.9204 542.754 59.1802L545.289 66.6491L542.906 70.0271C542.718 70.2932 542.907 70.659 543.231 70.659H545.53C545.748 70.659 545.952 70.5522 546.076 70.3726L553.73 59.2791C553.913 59.0138 553.725 58.6508 553.403 58.6508" clip-rule="evenodd" fill-rule="evenodd"></path>
<path fill="#298FC2" d="M561.075 54.1052H556.292C555.965 54.1052 555.687 54.344 555.636 54.6685L553.702 66.9813C553.663 67.2244 553.851 67.4433 554.095 67.4433H556.549C556.777 67.4433 556.972 67.2763 557.008 67.0488L557.557 63.5585C557.607 63.2335 557.886 62.9947 558.213 62.9947H559.726C562.877 62.9947 564.694 61.4641 565.17 58.4311C565.385 57.104 565.178 56.0615 564.56 55.3312C563.88 54.5294 562.676 54.1052 561.075 54.1052ZM561.627 58.6024C561.366 60.3254 560.055 60.3254 558.786 60.3254H558.065L558.572 57.1075C558.602 56.913 558.769 56.7698 558.965 56.7698H559.296C560.159 56.7698 560.974 56.7698 561.395 57.2641C561.646 57.5589 561.723 57.997 561.627 58.6024V58.6024Z" clip-rule="evenodd" fill-rule="evenodd"></path>
<path fill="#298FC2" d="M575.49 58.4538H573.201C573.004 58.4538 572.837 58.5969 572.808 58.7914L572.706 59.4345L572.546 59.2015C572.05 58.4789 570.945 58.2374 569.841 58.2374C567.311 58.2374 565.15 60.162 564.729 62.8616C564.511 64.2082 564.821 65.496 565.581 66.3939C566.281 67.2195 567.278 67.5637 568.466 67.5637C570.505 67.5637 571.636 66.2472 571.636 66.2472L571.534 66.8862C571.495 67.1305 571.683 67.3495 571.928 67.3495H573.99C574.317 67.3495 574.595 67.1108 574.646 66.7857L575.885 58.9157C575.922 58.6734 575.735 58.4538 575.49 58.4538ZM572.297 62.9291C572.078 64.2426 571.038 65.1245 569.713 65.1245C569.05 65.1245 568.517 64.9103 568.176 64.5046C567.837 64.1016 567.71 63.5279 567.816 62.889C568.024 61.5866 569.078 60.6759 570.383 60.6759C571.033 60.6759 571.562 60.893 571.91 61.3021C572.26 61.7157 572.399 62.2929 572.297 62.9291V62.9291Z" clip-rule="evenodd" fill-rule="evenodd"></path>
<path fill="#298FC2" d="M577.999 54.4437L576.036 66.9819C575.997 67.225 576.185 67.4439 576.429 67.4439H578.402C578.73 67.4439 579.008 67.2053 579.059 66.8802L580.994 54.568C581.033 54.3249 580.845 54.1052 580.601 54.1052H578.392C578.197 54.1058 578.029 54.2492 577.999 54.4437" clip-rule="evenodd" fill-rule="evenodd"></path>
<rect stroke="#F3F3F3" fill="white" rx="3.5" height="57" width="83" y="20.5" x="116.5"></rect>
<path fill="#15195A" d="M153.296 59.7782H147.703L151.201 39.4772H156.793L153.296 59.7782Z"></path>
<path fill="#15195A" d="M173.569 39.9734C172.465 39.5627 170.716 39.1091 168.553 39.1091C163.03 39.1091 159.141 41.8734 159.117 45.8254C159.071 48.7412 161.901 50.3608 164.018 51.333C166.182 52.3264 166.917 52.9749 166.917 53.8604C166.895 55.2204 165.169 55.8473 163.559 55.8473C161.326 55.8473 160.13 55.5241 158.312 54.7675L157.575 54.4431L156.793 59.0003C158.104 59.5611 160.521 60.0589 163.03 60.0807C168.898 60.0807 172.718 57.3592 172.763 53.1477C172.786 50.8367 171.291 49.0659 168.069 47.6189C166.113 46.69 164.915 46.0637 164.915 45.1133C164.938 44.2493 165.928 43.3643 168.136 43.3643C169.954 43.321 171.29 43.7311 172.302 44.1416L172.808 44.3572L173.569 39.9734V39.9734V39.9734Z"></path>
<path fill="#15195A" d="M183.579 39.4772H187.905L192.417 59.7779H187.239C187.239 59.7779 186.732 57.4454 186.571 56.7326H179.391C179.183 57.2723 178.217 59.7779 178.217 59.7779H172.349L180.656 41.1616C181.232 39.844 182.245 39.4772 183.579 39.4772ZM183.235 46.9062C183.235 46.9062 181.463 51.42 181.002 52.5863H185.65C185.42 51.5713 184.361 46.7119 184.361 46.7119L183.971 44.9626C183.806 45.4131 183.568 46.0324 183.407 46.4501C183.299 46.7332 183.225 46.9237 183.235 46.9062Z" clip-rule="evenodd" fill-rule="evenodd"></path>
<path fill="#15195A" d="M132.469 39.4772C133.689 39.5199 134.679 39.887 135.001 41.1832L136.956 50.5114L136.957 50.5133L137.555 53.3209L143.032 39.4772H148.946L140.155 59.7565H134.242L129.256 42.1168C127.536 41.1733 125.574 40.414 123.38 39.8873L123.471 39.4772H132.469Z"></path>
<rect stroke="#F3F3F3" fill="white" rx="3.5" height="57" width="83" y="20.5" x="312.5"></rect>
<path fill="#6C6BBD" d="M361.691 62.0159H346.699V35.2427H361.691V62.0159Z"></path>
<path fill="#EB001B" d="M347.66 48.6271C347.66 43.1961 350.219 38.3582 354.204 35.2405C351.29 32.9607 347.612 31.6 343.615 31.6C334.153 31.6 326.483 39.2232 326.483 48.6271C326.483 58.0311 334.153 65.6543 343.615 65.6543C347.612 65.6543 351.29 64.2936 354.204 62.0137C350.219 58.896 347.66 54.0582 347.66 48.6271"></path>
<path fill="#0099DF" d="M381.909 48.6271C381.909 58.0311 374.239 65.6543 364.777 65.6543C360.78 65.6543 357.102 64.2936 354.187 62.0137C358.173 58.896 360.732 54.0582 360.732 48.6271C360.732 43.1961 358.173 38.3582 354.187 35.2405C357.102 32.9607 360.78 31.6 364.777 31.6C374.239 31.6 381.909 39.2232 381.909 48.6271"></path>
<rect stroke="#F3F3F3" fill="white" rx="3.5" height="57" width="83" y="20.5" x="214.5"></rect>
<path fill="#FF5F00" d="M263.691 62.0159H248.699V35.2427H263.691V62.0159Z"></path>
<path fill="#EB001B" d="M249.66 48.6271C249.66 43.1961 252.219 38.3582 256.204 35.2405C253.29 32.9607 249.612 31.6 245.615 31.6C236.153 31.6 228.483 39.2232 228.483 48.6271C228.483 58.0311 236.153 65.6543 245.615 65.6543C249.612 65.6543 253.29 64.2936 256.204 62.0137C252.219 58.896 249.66 54.0582 249.66 48.6271"></path>
<path fill="#F79E1B" d="M283.909 48.6271C283.909 58.0311 276.239 65.6543 266.777 65.6543C262.78 65.6543 259.102 64.2936 256.187 62.0137C260.173 58.896 262.732 54.0582 262.732 48.6271C262.732 43.1961 260.173 38.3582 256.187 35.2405C259.102 32.9607 262.78 31.6 266.777 31.6C276.239 31.6 283.909 39.2232 283.909 48.6271"></path>
</svg>
